<svg style="fill: white" id="Layer_1" data-name="Layer 1" xmlns="http://www.w3.org/2000/svg" viewBox="0 0 408.06 410.38">
        <!-- N -->
        <path d="M80.16,71.87a3.41,3.41,0,0,0-2.46-1.24,3.71,3.71,0,0,0-2.25,1.45l-.62-.6,8.39-8.83.63.6A7.06,7.06,0,0,0,83,64.5a1.84,1.84,0,0,0,.15,2,7.46,7.46,0,0,0,1.06,1.19l30.41,28.9-4.31,4.54a1.51,1.51,0,0,1-.52,0l-42-6.63,22,20.87a10.64,10.64,0,0,0,1.42,1.17,2,2,0,0,0,1.17.37,2,2,0,0,0,1.14-.43,10.58,10.58,0,0,0,1.31-1.19l.58.55L86.68,125l-.58-.55a9.06,9.06,0,0,0,1-1.39,2,2,0,0,0,.27-1.11,2,2,0,0,0-.43-1.1,10.08,10.08,0,0,0-1.2-1.33L59.16,94.25a3.79,3.79,0,0,0-2.39-1.07,2.67,2.67,0,0,0-2.32,1l-.63-.59,8.94-9.42Q72.14,86,81.4,87.47t18.6,3.3Z"/>
        <!-- A -->
        <path d="M176.22,66.05l-15.31,5.62-.3-.81a12.74,12.74,0,0,0,1.32-.56,2.23,2.23,0,0,0,.85-.67,1.15,1.15,0,0,0,.18-.95,2.7,2.7,0,0,0-.79-1.3l-6-6.88-15.81,5.81-.11,9a3.35,3.35,0,0,0,.26,1.5,1.25,1.25,0,0,0,.71.66,2.05,2.05,0,0,0,1.1,0,9.89,9.89,0,0,0,1.41-.41l.3.81L132.72,82l-.3-.82a3,3,0,0,0,1.48-1.57,7,7,0,0,0,.41-2.17l1.28-45.58,5.69-2.08,31,34a6.78,6.78,0,0,0,1.64,1.28,2.27,2.27,0,0,0,2,.15Zm-35.83-23.8-.06,19,12.56-4.61Z"/>
        <!-- I -->
        <path d="M214.07,65.26l-17-.35v-.86l1.53-.1a2.67,2.67,0,0,0,1.11-.31,1.53,1.53,0,0,0,.65-.79,4.94,4.94,0,0,0,.23-1.53l.77-38.27a4.41,4.41,0,0,0-.2-1.57,1.58,1.58,0,0,0-.65-.81,2.85,2.85,0,0,0-1.1-.32,13.1,13.1,0,0,0-1.53-.1v-.87l17,.35v.86l-1.53.1a2.67,2.67,0,0,0-1.11.31,1.57,1.57,0,0,0-.65.79,4.66,4.66,0,0,0-.23,1.53l-.77,38.27a4.41,4.41,0,0,0,.2,1.57,1.45,1.45,0,0,0,.65.81,2.8,2.8,0,0,0,1.09.32,13.1,13.1,0,0,0,1.53.1Z"/>
        <!-- C -->
        <path d="M274.09,76.88a21.6,21.6,0,0,1-16.54-.11,29.92,29.92,0,0,1-8.7-5.08,21.61,21.61,0,0,1-5.53-7.06,20.29,20.29,0,0,1-2-8.63,26.23,26.23,0,0,1,2-9.89,27,27,0,0,1,5.2-8.54,21.26,21.26,0,0,1,16.21-7.11,27.06,27.06,0,0,1,9.81,2,24.23,24.23,0,0,1,6.57,3.85l.76.62c.4.32.83.66,1.29,1l1.27,1a3.82,3.82,0,0,0,.7.49,1.64,1.64,0,0,0,1.23,0,2.12,2.12,0,0,0,.9-.83l.93.36-4.32,11a5.28,5.28,0,0,1-1.05,0,13.84,13.84,0,0,0-2.73-7.83,14.94,14.94,0,0,0-6.67-5.07,12.52,12.52,0,0,0-6.84-.88A13,13,0,0,0,261,38.68a19,19,0,0,0-4.37,4.8,33.14,33.14,0,0,0-3.11,6,25,25,0,0,0-1.64,6.76,20.59,20.59,0,0,0,.38,6.69,18.26,18.26,0,0,0,2.57,6,14.92,14.92,0,0,0,5,4.61,17.91,17.91,0,0,0,7.45,2.63,15,15,0,0,0,7.2-1Z"/>
        <!-- A -->
        <path d="M320.21,124.07,308.92,112.3l.62-.6c.32.35.65.68,1,1a2.2,2.2,0,0,0,.95.51,1.19,1.19,0,0,0,1-.21,2.83,2.83,0,0,0,.88-1.25l3.89-8.26L305.59,91.33l-8.27,3.5a3.36,3.36,0,0,0-1.26.84,1.21,1.21,0,0,0-.33.91,2,2,0,0,0,.43,1,8.41,8.41,0,0,0,.94,1.13l-.63.6-8.34-8.7.63-.6a3.12,3.12,0,0,0,2,.73,7,7,0,0,0,2.15-.5l42.27-17.1,4.19,4.37-18.72,42a6.93,6.93,0,0,0-.51,2,2.28,2.28,0,0,0,.66,1.9Zm7.42-42.36-17.39,7.55,9.27,9.65Z"/>
        <!-- Círculo exterior -->
        <path d="M408,205.19v-1.1h0C407,92.67,317,2.1,205.79.09V0c-.59,0-1.17,0-1.76.05s-1.16,0-1.75,0v0C91,2.1,1.1,92.67.05,204.09H0v2.2H.05c1.05,111.42,91,202,202.23,204v.09c.59,0,1.16,0,1.75-.05s1.17.05,1.76.05v-.09C317,408.27,407,317.71,408,206.29h.06C408.07,205.92,408,205.56,408,205.19ZM204,403.68C95.27,402.59,7.14,314,6.68,205.19,7.14,96.34,95.27,7.79,204,6.7,312.8,7.79,400.92,96.34,401.38,205.19,400.92,314,312.8,402.59,204,403.68Z"/>
        <!-- Círculo interior -->
        <path d="M334.69,205.68V205h0A132.24,132.24,0,0,0,205,74.16V74.1h-2.26v.06A132.24,132.24,0,0,0,73.07,205h0v1.42h0A132.25,132.25,0,0,0,202.74,337.2v.06H205v-.06A132.24,132.24,0,0,0,334.67,206.39h0A4.21,4.21,0,0,0,334.69,205.68ZM203.87,330.41a124.74,124.74,0,0,1,0-249.47,124.74,124.74,0,0,1,0,249.47Z"/>
        <!-- Runa superior -->
        <polygon class="anima1" points="182.53 98.74 234.86 151.56 234.86 171.06 197.4 134.09 197.4 252.01 144.92 199.54 144.92 179.69 182.53 217.21 182.53 98.74"/>
        <!-- Runa inferior -->
        <polygon  class="anima2" points="208.21 159.46 260.53 212.28 260.53 231.78 223.07 194.81 223.07 312.73 170.59 260.26 170.59 240.42 208.21 277.93 208.21 159.46"/>
        <!-- Estrella izquierda -->
        <polygon points="37.37 173.33 41.26 165.48 45.12 173.34 53.79 174.62 47.51 180.72 48.98 189.36 41.23 185.27 33.46 189.34 34.96 180.7 28.69 174.57 37.37 173.33"/>
        <!-- Estrella derecha -->
        <polygon points="360.63 173.33 364.52 165.48 368.38 173.34 377.06 174.62 370.77 180.72 372.24 189.36 364.49 185.27 356.72 189.34 358.22 180.7 351.95 174.57 360.63 173.33"/>
        <!-- Hoja 18 -->
        <path d="M364.93,253.55c-6.5,13.33-18.32,20.95-18.32,20.95s-1.31-14,5.18-27.35,18.32-21,18.32-21S371.43,240.21,364.93,253.55Z"/>
        <!-- Hoja 15 -->
        <path d="M324.36,314.16c13.33-6.47,27.34-5.14,27.34-5.14s-7.63,11.82-21,18.29-27.35,5.14-27.35,5.14S311,320.63,324.36,314.16Z"/>
        <!-- Hoja 13 -->
        <path d="M308.59,339.4c14.64-2.38,27.68,2.9,27.68,2.9s-10.69,9.14-25.33,11.52-27.68-2.89-27.68-2.89S294,341.79,308.59,339.4Z"/>
        <!-- Hoja 12 -->
        <path d="M274.6,359c14.82.51,26.59,8.22,26.59,8.22s-12.27,6.89-27.09,6.39-26.59-8.22-26.59-8.22S259.78,358.49,274.6,359Z"/>
        <!-- Hoja 11 -->
        <path d="M246.07,373.26c14.54,2.91,24.9,12.43,24.9,12.43s-13.23,4.82-27.77,1.9-24.9-12.43-24.9-12.43S231.52,370.36,246.07,373.26Z"/>
        <!-- Hoja 16 -->
        <path d="M333.86,291c-6.56,13.3-18.43,20.86-18.43,20.86s-1.24-14,5.32-27.32,18.44-20.85,18.44-20.85A57.48,57.48,0,0,1,333.86,291Z"/>
        <!-- Hoja 17 -->
        <path d="M353.91,279.23c11.76-9,25.74-10.57,25.74-10.57s-5.07,13.12-16.83,22.16-25.75,10.57-25.75,10.57S342.15,288.27,353.91,279.23Z"/>
        <!-- Hoja 14 -->
        <path d="M292.88,334.4c-9.77,11.16-23.18,15.41-23.18,15.41s2.41-13.87,12.17-25,23.18-15.4,23.18-15.4S302.64,323.23,292.88,334.4Z"/>
        <!-- Hoja 10 -->
        <path d="M237.09,348.13c12.82-7.47,26.89-7.2,26.89-7.2s-6.72,12.37-19.54,19.83S217.56,368,217.56,368,224.27,355.59,237.09,348.13Z"/>
        <!-- separación ramas -->
        <circle cx="203.87" cy="372.33" r="5.94"/>

        <path d="M42.7,253.55C49.2,266.88,61,274.5,61,274.5s1.31-14-5.19-27.35-18.32-21-18.32-21S36.21,240.21,42.7,253.55Z"/>
        <path d="M83.28,314.16C69.94,307.69,55.93,309,55.93,309s7.64,11.82,21,18.29,27.35,5.14,27.35,5.14S96.63,320.63,83.28,314.16Z"/>
        <path d="M99.05,339.4c-14.64-2.38-27.68,2.9-27.68,2.9s10.69,9.14,25.33,11.52,27.68-2.89,27.68-2.89S113.69,341.79,99.05,339.4Z"/>
        <path d="M133,359c-14.82.51-26.59,8.22-26.59,8.22s12.27,6.89,27.09,6.39,26.59-8.22,26.59-8.22S147.86,358.49,133,359Z"/>
        <path d="M161.57,373.26c-14.54,2.91-24.9,12.43-24.9,12.43s13.22,4.82,27.77,1.9,24.9-12.43,24.9-12.43S176.11,370.36,161.57,373.26Z"/>
        <path d="M73.78,291c6.56,13.3,18.43,20.86,18.43,20.86s1.23-14-5.33-27.32-18.43-20.85-18.43-20.85A57.48,57.48,0,0,0,73.78,291Z"/>
        <path d="M53.72,279.23C42,270.19,28,268.66,28,268.66s5.07,13.12,16.83,22.16,25.74,10.57,25.74,10.57S65.48,288.27,53.72,279.23Z"/>
        <path d="M114.76,334.4c9.77,11.16,23.18,15.41,23.18,15.41s-2.41-13.87-12.18-25-23.17-15.4-23.17-15.4S105,323.23,114.76,334.4Z"/>
        <path d="M170.55,348.13c-12.82-7.47-26.89-7.2-26.89-7.2s6.72,12.37,19.54,19.83S190.08,368,190.08,368,183.37,355.59,170.55,348.13Z"/>
    </svg>